<svg width="12" height="12" viewBox="0 0 12 12" fill="none" xmlns="http://www.w3.org/2000/svg">
<path fill-rule="evenodd" clip-rule="evenodd" d="M11.3947 2.45723C11.7852 2.0667 11.7852 1.43354 11.3947 1.04302C11.0042 0.652491 10.371 0.652491 9.9805 1.04302L6.21868 4.80484L2.45686 1.04302C2.06634 0.652491 1.43317 0.652491 1.04265 1.04302C0.652125 1.43354 0.652125 2.0667 1.04265 2.45723L4.80447 6.21905L1.04265 9.98087C0.652125 10.3714 0.652125 11.0046 1.04265 11.3951C1.43317 11.7856 2.06634 11.7856 2.45686 11.3951L6.21868 7.63326L9.9805 11.3951C10.371 11.7856 11.0042 11.7856 11.3947 11.3951C11.7852 11.0046 11.7852 10.3714 11.3947 9.98087L7.63289 6.21905L11.3947 2.45723Z" fill="#EC3131"/>
</svg>
