<svg width="35" height="23" viewBox="0 0 35 23" fill="none" xmlns="http://www.w3.org/2000/svg">
<mask id="path-1-inside-1" fill="white">
<path d="M33.25 8.29156H32.6667V5.95825C32.6667 4.99343 31.8815 4.20825 30.9167 4.20825H29.75C29.5446 4.20825 29.3498 4.25022 29.1667 4.31558V2.45825C29.1667 1.49343 28.3815 0.708252 27.4167 0.708252H26.25C25.2852 0.708252 24.5 1.49343 24.5 2.45825V8.29156H10.5V2.45825C10.5 1.49343 9.71482 0.708252 8.75 0.708252H7.58331C6.61849 0.708252 5.83331 1.49343 5.83331 2.45825V4.31558C5.65018 4.25022 5.45528 4.20825 5.25 4.20825H4.08331C3.11849 4.20825 2.33331 4.99343 2.33331 5.95825V8.29156H1.75C0.785176 8.29156 0 9.07674 0 10.0416V12.3749C0 13.3397 0.785176 14.1249 1.75 14.1249H2.33331V17.0416C2.33331 18.0064 3.11849 18.7916 4.08331 18.7916H5.25C5.45535 18.7916 5.65018 18.7496 5.83331 18.6842V20.5416C5.83331 21.5064 6.61849 22.2916 7.58331 22.2916H8.75C9.71482 22.2916 10.5 21.5064 10.5 20.5416V14.1249H24.5V20.5416C24.5 21.5064 25.2852 22.2916 26.25 22.2916H27.4167C28.3815 22.2916 29.1667 21.5064 29.1667 20.5416V18.6842C29.3498 18.7496 29.5447 18.7916 29.75 18.7916H30.9167C31.8815 18.7916 32.6667 18.0064 32.6667 17.0416V14.1249H33.25C34.2148 14.1249 35 13.3397 35 12.3749V10.0416C35 9.07674 34.2148 8.29156 33.25 8.29156ZM2.33331 12.9582H1.75C1.42803 12.9582 1.16669 12.6968 1.16669 12.3749V10.0416C1.16669 9.71959 1.42803 9.45825 1.75 9.45825H2.33331V12.9582ZM5.83331 17.0416C5.83331 17.3635 5.57197 17.6249 5.25 17.6249H4.08331C3.76134 17.6249 3.5 17.3635 3.5 17.0416V13.5416V8.87487V5.95818C3.5 5.63621 3.76134 5.37487 4.08331 5.37487H5.25C5.57197 5.37487 5.83331 5.63621 5.83331 5.95818V17.0416ZM9.33331 20.5416C9.33331 20.8635 9.07197 21.1249 8.75 21.1249H7.58331C7.26134 21.1249 7 20.8635 7 20.5416V17.0416V5.95818V2.45818C7 2.13621 7.26134 1.87487 7.58331 1.87487H8.75C9.07197 1.87487 9.33331 2.13621 9.33331 2.45818V20.5416ZM24.5 12.9582H10.5V9.45818H24.5V12.9582ZM28 5.95818V17.0415V20.5415C28 20.8635 27.7387 21.1248 27.4167 21.1248H26.25C25.928 21.1248 25.6667 20.8635 25.6667 20.5415V2.45818C25.6667 2.13621 25.928 1.87487 26.25 1.87487H27.4167C27.7387 1.87487 28 2.13621 28 2.45818V5.95818ZM31.5 8.87487V13.5416V17.0416C31.5 17.3635 31.2387 17.6249 30.9167 17.6249H29.75C29.428 17.6249 29.1667 17.3635 29.1667 17.0416V5.95818C29.1667 5.63621 29.428 5.37487 29.75 5.37487H30.9167C31.2387 5.37487 31.5 5.63621 31.5 5.95818V8.87487ZM33.8333 12.3749C33.8333 12.6968 33.572 12.9582 33.25 12.9582H32.6667V9.45818H33.25C33.572 9.45818 33.8333 9.71952 33.8333 10.0415V12.3749Z"/>
</mask>
<path d="M33.25 8.29156H32.6667V5.95825C32.6667 4.99343 31.8815 4.20825 30.9167 4.20825H29.75C29.5446 4.20825 29.3498 4.25022 29.1667 4.31558V2.45825C29.1667 1.49343 28.3815 0.708252 27.4167 0.708252H26.25C25.2852 0.708252 24.5 1.49343 24.5 2.45825V8.29156H10.5V2.45825C10.5 1.49343 9.71482 0.708252 8.75 0.708252H7.58331C6.61849 0.708252 5.83331 1.49343 5.83331 2.45825V4.31558C5.65018 4.25022 5.45528 4.20825 5.25 4.20825H4.08331C3.11849 4.20825 2.33331 4.99343 2.33331 5.95825V8.29156H1.75C0.785176 8.29156 0 9.07674 0 10.0416V12.3749C0 13.3397 0.785176 14.1249 1.75 14.1249H2.33331V17.0416C2.33331 18.0064 3.11849 18.7916 4.08331 18.7916H5.25C5.45535 18.7916 5.65018 18.7496 5.83331 18.6842V20.5416C5.83331 21.5064 6.61849 22.2916 7.58331 22.2916H8.75C9.71482 22.2916 10.5 21.5064 10.5 20.5416V14.1249H24.5V20.5416C24.5 21.5064 25.2852 22.2916 26.25 22.2916H27.4167C28.3815 22.2916 29.1667 21.5064 29.1667 20.5416V18.6842C29.3498 18.7496 29.5447 18.7916 29.75 18.7916H30.9167C31.8815 18.7916 32.6667 18.0064 32.6667 17.0416V14.1249H33.25C34.2148 14.1249 35 13.3397 35 12.3749V10.0416C35 9.07674 34.2148 8.29156 33.25 8.29156ZM2.33331 12.9582H1.75C1.42803 12.9582 1.16669 12.6968 1.16669 12.3749V10.0416C1.16669 9.71959 1.42803 9.45825 1.75 9.45825H2.33331V12.9582ZM5.83331 17.0416C5.83331 17.3635 5.57197 17.6249 5.25 17.6249H4.08331C3.76134 17.6249 3.5 17.3635 3.5 17.0416V13.5416V8.87487V5.95818C3.5 5.63621 3.76134 5.37487 4.08331 5.37487H5.25C5.57197 5.37487 5.83331 5.63621 5.83331 5.95818V17.0416ZM9.33331 20.5416C9.33331 20.8635 9.07197 21.1249 8.75 21.1249H7.58331C7.26134 21.1249 7 20.8635 7 20.5416V17.0416V5.95818V2.45818C7 2.13621 7.26134 1.87487 7.58331 1.87487H8.75C9.07197 1.87487 9.33331 2.13621 9.33331 2.45818V20.5416ZM24.5 12.9582H10.5V9.45818H24.5V12.9582ZM28 5.95818V17.0415V20.5415C28 20.8635 27.7387 21.1248 27.4167 21.1248H26.25C25.928 21.1248 25.6667 20.8635 25.6667 20.5415V2.45818C25.6667 2.13621 25.928 1.87487 26.25 1.87487H27.4167C27.7387 1.87487 28 2.13621 28 2.45818V5.95818ZM31.5 8.87487V13.5416V17.0416C31.5 17.3635 31.2387 17.6249 30.9167 17.6249H29.75C29.428 17.6249 29.1667 17.3635 29.1667 17.0416V5.95818C29.1667 5.63621 29.428 5.37487 29.75 5.37487H30.9167C31.2387 5.37487 31.5 5.63621 31.5 5.95818V8.87487ZM33.8333 12.3749C33.8333 12.6968 33.572 12.9582 33.25 12.9582H32.6667V9.45818H33.25C33.572 9.45818 33.8333 9.71952 33.8333 10.0415V12.3749Z" fill="#FD9080" stroke="#FD9080" stroke-width="4" mask="url(#path-1-inside-1)"/>
</svg>
