<svg width="36" height="27" viewBox="0 0 36 27" fill="none" xmlns="http://www.w3.org/2000/svg">
<path fill-rule="evenodd" clip-rule="evenodd" d="M0.125 1.625C0.125 1.07272 0.572715 0.625 1.125 0.625H25.875C26.1402 0.625 26.3946 0.730357 26.5821 0.917893L35.5821 9.91789C35.7696 10.1054 35.875 10.3598 35.875 10.625V25.25C35.875 25.8023 35.4273 26.25 34.875 26.25H1.125C0.572715 26.25 0.125 25.8023 0.125 25.25V1.625ZM2.125 2.625V24.25H33.875V11.0392L25.4608 2.625H2.125Z" fill="#0B0D16"/>
<path fill-rule="evenodd" clip-rule="evenodd" d="M25.875 0.625C26.4273 0.625 26.875 1.07272 26.875 1.625V9.625H34.875C35.4273 9.625 35.875 10.0727 35.875 10.625C35.875 11.1773 35.4273 11.625 34.875 11.625H25.875C25.3227 11.625 24.875 11.1773 24.875 10.625V1.625C24.875 1.07272 25.3227 0.625 25.875 0.625Z" fill="#0B0D16"/>
<path fill-rule="evenodd" clip-rule="evenodd" d="M9 7.125C8.30964 7.125 7.75 7.68464 7.75 8.375C7.75 9.06536 8.30964 9.625 9 9.625C9.69036 9.625 10.25 9.06536 10.25 8.375C10.25 7.68464 9.69036 7.125 9 7.125ZM5.75 8.375C5.75 6.58007 7.20507 5.125 9 5.125C10.7949 5.125 12.25 6.58007 12.25 8.375C12.25 10.1699 10.7949 11.625 9 11.625C7.20507 11.625 5.75 10.1699 5.75 8.375Z" fill="#0B0D16"/>
<path fill-rule="evenodd" clip-rule="evenodd" d="M15.8499 16.5095C15.6945 16.7459 15.3062 17.25 14.625 17.25C13.9032 17.25 13.4603 16.8404 13.2025 16.4765C13.0883 16.3151 12.9938 16.1413 12.925 16.0144C12.9181 16.0016 12.9114 15.9892 12.9048 15.977C12.8374 15.8524 12.7839 15.7535 12.7223 15.655C12.5969 15.4543 12.4733 15.3158 12.3005 15.2146C12.126 15.1125 11.8176 15 11.25 15C10.8749 15 10.3919 15.1918 9.81865 15.6618C9.25723 16.1222 8.70327 16.7738 8.20784 17.4971C7.71561 18.2158 7.30528 18.9699 7.02134 19.6051C6.99929 19.6544 6.97813 19.7027 6.95785 19.75H24.5933C24.5143 19.5031 24.4205 19.2256 24.3132 18.9239C23.9324 17.8533 23.3922 16.5108 22.7597 15.2014C22.123 13.8832 21.4132 12.6416 20.7016 11.745C20.3457 11.2966 20.015 10.9675 19.7214 10.7575C19.4251 10.5455 19.2309 10.5 19.125 10.5C18.7759 10.5 18.4412 10.6707 18.0722 11.1582C17.6904 11.6627 17.3711 12.385 17.0793 13.2088C16.9368 13.6114 16.808 14.0163 16.6818 14.413L16.6791 14.4216C16.5556 14.81 16.4314 15.2004 16.3061 15.5407C16.1848 15.8703 16.0376 16.2242 15.8499 16.5095ZM16.4776 9.95115C17.0666 9.173 17.9273 8.5 19.125 8.5C19.7925 8.5 20.3894 8.7762 20.8851 9.13087C21.3837 9.48758 21.8462 9.97007 22.2681 10.5016C23.1122 11.5651 23.8965 12.9567 24.5606 14.3315C25.2289 15.715 25.7961 17.1252 26.1975 18.2536C26.3982 18.8177 26.5603 19.3195 26.6737 19.7186C26.7303 19.9175 26.7772 20.0995 26.8108 20.2556C26.8396 20.3895 26.875 20.5755 26.875 20.75C26.875 21.3023 26.4273 21.75 25.875 21.75H5.625C5.07272 21.75 4.625 21.3023 4.625 20.75C4.625 20.4471 4.70645 20.1137 4.79634 19.8242C4.89334 19.5119 5.02983 19.1594 5.19545 18.7889C5.52676 18.0477 5.99533 17.1881 6.55778 16.3669C7.11704 15.5504 7.79355 14.736 8.55049 14.1153C9.2956 13.5043 10.2188 13 11.25 13C12.0886 13 12.7646 13.1688 13.3108 13.4885C13.8587 13.8092 14.1922 14.2332 14.4183 14.595C14.4405 14.6305 14.462 14.666 14.4827 14.701C14.5734 14.4427 14.668 14.1461 14.7745 13.8112L14.78 13.7939C14.9036 13.4054 15.0406 12.9744 15.1941 12.5412C15.5 11.6775 15.9014 10.7123 16.4776 9.95115ZM14.1534 15.4449C14.1534 15.4442 14.1581 15.4375 14.1678 15.4269C14.1583 15.4403 14.1535 15.4456 14.1534 15.4449Z" fill="#0B0D16"/>
</svg>
