<svg width="5" height="16" viewBox="0 0 5 16" fill="none" xmlns="http://www.w3.org/2000/svg">
<path d="M1 2.40625C1 3.1829 1.6296 3.8125 2.40625 3.8125C3.1829 3.8125 3.8125 3.1829 3.8125 2.40625C3.8125 1.6296 3.1829 1 2.40625 1C1.6296 1 1 1.6296 1 2.40625Z" stroke="#656C76" stroke-width="1.5" stroke-miterlimit="10" stroke-linecap="round" stroke-linejoin="round"/>
<path d="M0.999999 13.6562C0.999999 14.4329 1.6296 15.0625 2.40625 15.0625C3.1829 15.0625 3.8125 14.4329 3.8125 13.6562C3.8125 12.8796 3.1829 12.25 2.40625 12.25C1.6296 12.25 0.999999 12.8796 0.999999 13.6562Z" stroke="#656C76" stroke-width="1.5" stroke-miterlimit="10" stroke-linecap="round" stroke-linejoin="round"/>
<path d="M1 8.03125C1 8.8079 1.6296 9.4375 2.40625 9.4375C3.1829 9.4375 3.8125 8.8079 3.8125 8.03125C3.8125 7.2546 3.1829 6.625 2.40625 6.625C1.6296 6.625 1 7.2546 1 8.03125Z" stroke="#656C76" stroke-width="1.5" stroke-miterlimit="10" stroke-linecap="round" stroke-linejoin="round"/>
</svg>
