<svg width="18" height="18" viewBox="0 0 18 18" fill="none" xmlns="http://www.w3.org/2000/svg">
<path d="M13.2498 14.6665H3.33317V4.7498H9.70817V3.33313H3.33317C2.554 3.33313 1.9165 3.97063 1.9165 4.7498V14.6665C1.9165 15.4456 2.554 16.0831 3.33317 16.0831H13.2498C14.029 16.0831 14.6665 15.4456 14.6665 14.6665V8.29146H13.2498V14.6665ZM7.73192 12.421L6.34359 10.7494L4.39567 13.2498H12.1873L9.67984 9.91355L7.73192 12.421ZM14.6665 3.33313V1.20813H13.2498V3.33313H11.1248C11.1319 3.34021 11.1248 4.7498 11.1248 4.7498H13.2498V6.86771C13.2569 6.8748 14.6665 6.86771 14.6665 6.86771V4.7498H16.7915V3.33313H14.6665Z" fill="#3B7AF1"/>
</svg>
